<?xml version="1.0" standalone="no"?>
<!DOCTYPE svg PUBLIC "-//W3C//DTD SVG 20010904//EN"
 "http://www.w3.org/TR/2001/REC-SVG-20010904/DTD/svg10.dtd">
<svg version="1.0" xmlns="http://www.w3.org/2000/svg"
 width="626.000000pt" height="626.000000pt" viewBox="0 0 626.000000 626.000000"
 preserveAspectRatio="xMidYMid meet">
<metadata>
Created by potrace 1.16, written by Peter Selinger 2001-2019
</metadata>
<g transform="translate(0.000000,626.000000) scale(0.100000,-0.100000)"
>
<path d="M1299 5786 c-94 -33 -167 -108 -194 -199 -42 -141 8 -282 126 -359
l49 -31 0 -751 c0 -414 5 -801 10 -863 27 -305 118 -584 264 -808 31 -47 56
-88 56 -90 0 -3 -14 -5 -30 -5 -63 0 -136 -54 -165 -122 -48 -116 28 -255 150
-274 88 -13 180 47 210 136 l16 49 92 -81 c164 -145 278 -212 577 -341 226
-97 658 -270 674 -270 33 0 725 287 879 364 137 69 263 157 368 257 48 45 89
82 92 82 2 0 7 -17 11 -37 7 -50 46 -105 93 -134 59 -37 147 -34 204 6 132 93
113 288 -33 350 -21 8 -51 15 -68 15 -16 0 -30 2 -30 4 0 3 19 33 42 67 99
150 173 314 218 484 62 234 62 244 69 1142 l6 821 50 34 c57 39 109 110 126
171 15 57 6 162 -18 219 -26 58 -85 118 -149 149 -41 20 -64 24 -139 24 -78 0
-97 -4 -141 -27 -28 -15 -70 -48 -92 -73 -54 -62 -75 -125 -71 -220 3 -71 3
-74 -26 -96 -17 -13 -94 -74 -172 -137 l-143 -113 -39 11 c-51 13 -124 -2
-167 -35 -64 -49 -91 -152 -60 -227 20 -47 87 -105 131 -114 129 -24 224 45
243 177 l7 54 155 118 c85 64 161 120 168 123 7 4 33 -4 58 -17 l45 -24 -4
-835 c-3 -819 -4 -837 -25 -932 -45 -197 -134 -403 -238 -551 l-55 -78 -32 28
c-18 15 -76 66 -130 113 -53 46 -97 90 -97 96 0 6 7 28 15 49 14 32 15 100 13
503 -4 517 -4 517 -73 657 -97 198 -292 334 -535 375 -44 8 -212 10 -500 8
-411 -4 -439 -5 -504 -26 -264 -82 -436 -251 -496 -488 -19 -71 -20 -112 -20
-539 0 -382 3 -470 15 -504 l14 -42 -32 -28 c-17 -16 -77 -67 -132 -114 l-100
-86 -18 22 c-84 105 -187 304 -241 467 -70 212 -69 205 -74 1103 -2 493 0 807
6 807 5 0 26 11 46 25 l37 25 172 -131 172 -131 7 -55 c14 -106 86 -173 187
-173 66 0 108 18 148 63 121 138 -6 356 -185 316 l-45 -10 -81 63 c-45 35
-122 94 -172 133 l-90 70 0 85 c1 77 -2 92 -32 152 -37 76 -85 120 -162 149
-58 22 -157 24 -211 5z m1276 -1920 c67 -28 65 -13 65 -634 l0 -559 178 -86
c97 -47 208 -99 245 -116 l68 -31 167 79 c92 43 202 96 245 117 l77 38 0 559
c0 479 2 562 15 587 17 32 61 60 95 60 34 0 78 -28 95 -60 13 -25 15 -102 15
-535 0 -278 2 -505 5 -505 3 0 47 21 98 47 50 26 95 48 100 48 13 0 256 -209
257 -222 0 -19 -150 -152 -245 -214 -49 -33 -135 -82 -190 -109 -92 -45 -707
-291 -730 -293 -6 0 -152 55 -325 123 -351 137 -533 224 -649 310 -83 61 -202
172 -200 186 0 5 57 58 126 118 l126 109 26 -17 c28 -18 166 -86 175 -86 3 0
6 228 6 508 0 560 -3 532 64 573 37 23 47 23 91 5z"/>
<path d="M2997 5785 c-128 -35 -258 -138 -319 -251 -107 -199 -66 -446 102
-615 137 -138 331 -183 514 -119 155 53 256 151 319 310 109 276 -59 597 -354
675 -66 18 -197 18 -262 0z"/>
<path d="M5430 1449 c-72 -14 -165 -65 -209 -115 -94 -108 -99 -276 -10 -377
53 -61 135 -100 279 -133 136 -31 164 -44 190 -87 30 -48 26 -91 -12 -133 -91
-98 -316 -48 -343 76 l-7 30 -109 0 c-124 0 -121 3 -93 -90 44 -147 150 -226
337 -252 207 -27 403 63 451 210 35 104 16 230 -43 303 -45 54 -132 95 -275
129 -184 43 -216 65 -216 146 0 75 80 123 186 111 71 -8 111 -45 138 -129 5
-16 19 -18 107 -18 l102 0 -6 55 c-7 65 -47 144 -96 187 -89 79 -237 113 -371
87z"/>
<path d="M390 1076 c0 -351 0 -356 25 -433 14 -43 41 -99 60 -125 154 -210
559 -205 706 9 63 91 63 92 69 516 l5 387 -112 0 -113 0 0 -342 c0 -355 -4
-397 -43 -452 -59 -84 -247 -89 -319 -9 -46 50 -48 73 -48 448 l0 355 -115 0
-115 0 0 -354z"/>
<path d="M1500 905 l0 -525 116 0 115 0 -3 344 c-2 189 -1 343 1 340 2 -2 63
-126 136 -275 l133 -271 68 -1 69 0 70 139 c39 76 101 202 138 279 l67 140 0
-347 0 -348 115 0 115 0 0 525 0 526 -145 -3 -146 -3 -113 -240 c-62 -132
-126 -266 -142 -298 l-30 -59 -53 114 c-29 62 -94 197 -144 301 l-90 187 -139
0 -138 0 0 -525z"/>
<path d="M3145 1248 c-37 -101 -89 -239 -116 -308 -27 -69 -84 -222 -128 -340
l-79 -215 111 -3 c61 -1 116 -1 122 2 7 2 29 54 50 115 l38 111 196 0 196 0
40 -113 40 -112 123 -3 c67 -1 122 1 122 5 0 8 -133 373 -222 608 -27 72 -74
199 -106 283 l-57 152 -131 0 -132 0 -67 -182z m263 -265 l60 -172 -124 -3
-125 -3 6 23 c8 31 119 331 122 329 1 -2 29 -80 61 -174z"/>
<path d="M4030 905 l0 -525 115 0 115 0 2 331 3 331 139 -214 c76 -117 173
-266 215 -330 l76 -118 118 0 117 0 0 525 0 525 -120 0 -121 0 3 -325 c2 -179
1 -325 -3 -325 -3 0 -14 15 -25 34 -10 19 -104 165 -209 325 l-190 290 -117 1
-118 0 0 -525z"/>
</g>
</svg>
